<svg viewBox="0 0 500 500" xmlns="http://www.w3.org/2000/svg">
  <style>
    .plexor-fg { fill: #1C1B1F; }
    @media (prefers-color-scheme: dark) {
      .plexor-fg { fill: #ffffff; }
    }
  </style>
  <path class="plexor-fg" d="M192.339 442.386C173.772 442.386 156.281 439.001 139.866 432.23C123.454 425.46 108.888 415.612 96.1688 402.687C83.4465 390.17 73.7001 375.757 66.9296 359.446C60.1592 343.136 56.7739 325.594 56.7739 306.821C56.7739 280.355 63.3659 256.427 76.5499 235.039C89.7307 213.65 106.989 197.878 128.326 187.723C134.277 175.311 142.459 163.898 152.87 153.484C163.281 143.073 175.002 134.585 188.032 128.021C198.391 106.682 214.547 89.4722 236.502 76.3929C258.454 63.3136 281.997 56.7739 307.131 56.7739C325.697 56.7739 343.136 60.1592 359.446 66.9296C375.757 73.7001 390.17 83.5481 402.687 96.4735C415.2 109.196 424.945 123.763 431.921 140.175C438.898 156.588 442.386 174.079 442.386 192.648C442.386 217.062 436.717 239.578 425.38 260.197C414.046 280.817 395.965 297.794 371.139 311.128C366.114 321.798 357.908 333.237 346.521 345.445C335.134 357.651 323.44 366.061 311.438 370.678C301.076 392.22 285.484 409.557 264.661 422.689C243.836 435.82 219.728 442.386 192.339 442.386ZM193.262 399.917C203.316 400.225 213.19 398.352 222.884 394.299C232.578 390.246 240.246 384.68 245.887 377.602C228.447 378.014 211.905 375.271 196.263 369.371C180.62 363.472 166.797 354.778 154.795 343.29C142.793 331.595 133.893 318.105 128.095 302.819C122.3 287.536 119.659 271.226 120.173 253.887C113.504 260.454 108.35 268.431 104.709 277.818C101.065 287.204 99.2433 296.872 99.2433 306.821C99.2433 319.747 101.551 331.8 106.168 342.98C110.784 354.164 117.504 364.064 126.327 372.681C134.944 381.092 144.945 387.632 156.332 392.3C167.719 396.966 180.029 399.504 193.262 399.917ZM250.503 342.366C260.25 342.366 269.713 340.546 278.893 336.905C288.073 333.262 295.998 328.107 302.667 321.441C285.331 321.85 268.841 319.004 253.195 312.901C237.552 306.795 223.832 297.741 212.036 285.739C200.034 273.534 191.006 259.711 184.953 244.271C178.899 228.832 176.387 212.341 177.415 194.799C169.515 203.829 164.103 212.395 161.179 220.498C158.256 228.601 156.794 238.295 156.794 249.58C156.794 262.505 159.179 274.585 163.949 285.817C168.719 297.05 175.413 306.975 184.03 315.592C192.647 324.209 202.648 330.826 214.035 335.442C225.422 340.058 237.578 342.366 250.503 342.366ZM308.359 284.202C313.695 284.202 318.594 283.766 323.057 282.895C327.519 282.021 332.775 280.456 338.826 278.201C344.057 261.173 344.519 244.451 340.211 228.036C335.902 211.624 327.388 197.212 314.669 184.8C303.076 172.9 288.458 164.692 270.815 160.178C253.171 155.666 236.245 155.718 220.036 160.334C218.396 165.874 217.242 170.976 216.574 175.642C215.906 180.31 215.572 185.773 215.572 192.03C215.572 204.546 217.88 216.471 222.497 227.805C227.113 239.143 233.833 249.12 242.656 257.737C251.273 266.763 261.198 273.431 272.43 277.739C283.663 282.048 295.639 284.202 308.359 284.202ZM381.604 244.811C387.861 238.552 392.477 231.114 395.453 222.497C398.429 213.88 399.917 203.724 399.917 192.03C399.917 179.31 397.633 167.385 393.066 156.254C388.502 145.126 381.912 135.15 373.295 126.327C364.472 117.71 354.521 111.042 343.442 106.325C332.363 101.604 320.567 99.2433 308.054 99.2433C297.283 99.2433 287.204 100.859 277.818 104.09C268.431 107.322 260.199 112.169 253.121 118.631C270.047 118.631 286.382 121.786 302.127 128.095C317.874 134.404 331.954 143.611 344.365 155.718C356.78 167.822 366.115 181.464 372.372 196.646C378.628 211.83 381.706 227.885 381.604 244.811Z"/>
</svg>